<svg width="26" height="18" viewBox="0 0 26 18" fill="none" xmlns="http://www.w3.org/2000/svg">
<mask id="mask0_21_542" style="mask-type:luminance" maskUnits="userSpaceOnUse" x="0" y="0" width="26" height="18">
<path fill-rule="evenodd" clip-rule="evenodd" d="M0 0.00100708H25.1958V17.7134H0V0.00100708Z" fill="white"/>
</mask>
<g mask="url(#mask0_21_542)">
<path fill-rule="evenodd" clip-rule="evenodd" d="M8.21876 0.267122C8.57376 -0.0888779 9.13276 -0.0888779 9.48776 0.267122C9.83176 0.611122 9.83176 1.18112 9.48776 1.52512L3.05076 7.96212H24.2928C24.7888 7.96212 25.1958 8.35712 25.1958 8.84912C25.1958 9.34512 24.7888 9.75112 24.2928 9.75112H3.05076L9.48776 16.1771C9.83176 16.5321 9.83176 17.1071 9.48776 17.4471C9.13276 17.8021 8.57376 17.8021 8.21876 17.4471L0.257756 9.48612C-0.0862442 9.14212 -0.0862442 8.57212 0.257756 8.22812L8.21876 0.267122Z" fill="#1E201D"/>
</g>
</svg>
